<?xml version="1.0" encoding="UTF-8"?>
<svg id="Capa_1" data-name="Capa 1" xmlns="http://www.w3.org/2000/svg" viewBox="0 0 906.88 313.96">
  <defs>
    <style>
      .cls-1 { fill: #fc7114; }
      .cls-2 { fill: #15355c; }
      .cls-3 { fill: #fe6e17; }
    </style>
  </defs>
  <polygon class="cls-2" points="246.86 0 246.86 20.89 52.94 20.89 0 72.75 0 262.83 52.45 313.96 256.98 313.96 371.23 215.78 307.1 215.78 307.1 138.79 183.5 138.79 183.5 116.73 123.01 167.72 183.64 217.97 183.64 196.21 241.06 196.21 241.06 243.54 228.5 256.11 80.06 256.11 66.77 242.81 66.77 92.18 79.7 79.26 246.9 79.26 246.9 101.97 307.24 51.13 246.86 0"/>
  <polygon class="cls-1" points="552.87 .21 552.87 21.11 366.87 21.11 307.53 78.71 307.53 123.54 322.18 123.54 322.18 197.53 380.65 197.53 380.65 92.05 393.28 79.43 552.87 79.43 552.87 101.92 613.08 50.7 552.87 .21"/>
  <polygon class="cls-1" points="424.79 167.77 486.48 116.51 486.48 138.74 622.6 138.74 622.6 263.55 572.19 313.96 366.92 313.96 330.44 280 380.8 236.91 380.8 243.34 393.54 256.07 535.35 256.07 543.52 256.07 555.38 244.04 555.38 196.15 486.98 196.15 486.98 218.82 424.79 167.77"/>
  <path class="cls-2" d="M602.08,21.48l34.67,28.97-33.41,28.84h99.84s-26.79,31.59-24.62,93.99v140.68h57.87v-155.05c.31-6.07-2.11-30.76,14.37-54.13,16.9-23.96,44.88-30.9,57.87-31.49s98.22,0,98.22,0V21.48h-304.8Z"/>
  <path class="cls-3" d="M752.45,313.09v-162s-.2-61.43,60.26-62.41c60.46-.98,94.16,0,94.16,0v49.89h-87.81s-8.9.49-8.9,10.76v164.63h-57.72v-.87Z"/>
</svg>
